HIERARCHY
ROOT Hips
{
	OFFSET 0.000000 0.000000 0.000000 
	CHANNELS 6 Xposition Yposition Zposition Yrotation Zrotation Xrotation 
	JOINT Lumbar
	{
		OFFSET 0.000000 0.000000 0.000000 
		CHANNELS 3 Zrotation Xrotation Yrotation
		JOINT Neck
		{
			OFFSET 0.000000 0.445665 0.000000 
			CHANNELS 3 Zrotation Xrotation Yrotation
			End Site
			{
				OFFSET 0.000000 0.227535 0.000000 
			}
		}
		JOINT RightShoulder
		{
			OFFSET 0.019635 0.377685 0.194865 
			CHANNELS 3 Zrotation Xrotation Yrotation
			JOINT RightElbow
			{
				OFFSET 0.000000 -0.243375 0.000000 
				CHANNELS 2 Zrotation Yrotation
				JOINT RightWrist
				{
					OFFSET 0.000000 -0.264825 0.000000 
					CHANNELS 2 Zrotation Xrotation
					End Site
					{
						OFFSET 0.006600 -0.176220 0.000990 
					}
				}
			}
		}
		JOINT LeftShoulder
		{
			OFFSET 0.019635 0.377685 -0.194865 
			CHANNELS 3 Zrotation Xrotation Yrotation
			JOINT LeftElbow
			{
				OFFSET 0.000000 -0.243375 0.000000 
				CHANNELS 2 Zrotation Yrotation
				JOINT LeftWrist
				{
					OFFSET 0.000000 -0.264825 0.000000 
					CHANNELS 2 Zrotation Xrotation
					End Site
					{
						OFFSET 0.006600 -0.176220 -0.000990 
					}
				}
			}
		}
	}
	JOINT RightHip
	{
		OFFSET 0.052140 -0.069960 0.075570 
		CHANNELS 3 Zrotation Xrotation Yrotation
		JOINT RightKnee
		{
			OFFSET 0.000000 -0.402270 0.000000 
			CHANNELS 1 Zrotation
			JOINT RightAnkle
			{
				OFFSET 0.000000 -0.404085 0.000000 
				CHANNELS 3 Zrotation Xrotation Yrotation
				End Site
				{
					OFFSET 0.204105 -0.089430 0.008415 
				}
			}
		}
	}
	JOINT LeftHip
	{
		OFFSET 0.052140 -0.069960 -0.075570 
		CHANNELS 3 Zrotation Xrotation Yrotation
		JOINT LeftKnee
		{
			OFFSET 0.000000 -0.402270 0.000000 
			CHANNELS 1 Zrotation
			JOINT LeftAnkle
			{
				OFFSET 0.000000 -0.404085 0.000000 
				CHANNELS 3 Zrotation Xrotation Yrotation
				End Site
				{
					OFFSET 0.204105 -0.089430 -0.008415 
				}
			}
		}
	}
}
MOTION
Frames: 31
Frame Time: 0.02
-1.4997 0.94512 -0.15165 208.03624 0 -1.16009 -58.06927 5.59585 -40.40802 -66.57769 -44.11773 42.30101 145.51769 -12.83224 55.60542 5.78705 81.38892 0.47586 -4.3282 140.48818 -9.79288 7.27195 8.80404 -81.9549 -4.65772 5.08828 15.89768 5.09467 2.83188 -27.14936 3.91947 -4.98796 -14.14066 8.31702 0.01376 -6.94527 -3.48083 -4.69192 0.55626 1.82527
-1.49974 0.94518 -0.15176 208.04636 0 -1.18979 -58.06927 5.5618 -40.43758 -66.57767 -44.11768 42.21245 146.13167 -13.84356 55.66832 5.78702 81.41244 -0.03527 -4.12112 140.63338 -9.82943 7.03075 8.83814 -82.04273 -4.67908 5.08658 15.84943 5.12414 2.79928 -27.05331 3.88884 -4.98796 -14.14573 8.18152 0.05969 -7.23356 -3.20858 -4.82862 0.7723 2.09072
-1.49979 0.94527 -0.15186 208.10462 0 -1.23133 -58.06927 5.52935 -40.47988 -66.57763 -44.1176 42.07549 146.73042 -14.97966 55.63726 5.78699 81.56583 -0.582 -3.86251 140.79873 -9.83908 6.70732 8.88178 -82.15353 -4.70801 5.08532 15.79411 5.15355 2.73302 -26.95494 3.85112 -4.98751 -14.15148 7.91482 0.12914 -7.95171 -2.66978 -5.10688 1.12101 2.71435
-1.49984 0.94535 -0.15197 208.14414 0 -1.26724 -58.06927 5.49842 -40.51538 -66.5776 -44.11753 41.96039 147.33083 -16.05981 55.49188 5.78696 81.65271 -1.09654 -3.6337 140.95441 -9.861 6.41729 8.92147 -82.25068 -4.73281 5.08478 15.74322 5.18196 2.67944 -26.86056 3.81761 -4.98687 -14.15645 7.71736 0.18621 -8.45279 -2.2703 -5.31213 1.39724 3.1518
-1.49988 0.94544 -0.15207 208.17102 0 -1.30505 -58.06927 5.45686 -40.55493 -66.57757 -44.11746 41.8466 147.95844 -17.14578 56.00588 5.78692 81.76801 -1.68144 -3.37477 141.11432 -9.8841 6.13905 8.96042 -82.36234 -4.76058 5.08064 15.6866 5.21526 2.63619 -26.7524 3.77929 -4.98759 -14.16329 7.48329 0.25057 -9.02979 -1.80141 -5.55 1.72247 3.67243
-1.49994 0.94551 -0.15217 208.23495 0 -1.3415 -58.06927 5.43775 -40.58923 -66.57755 -44.11739 41.71817 148.52322 -18.2438 55.12837 5.7869 81.85661 -2.12756 -3.16774 141.26897 -9.8973 5.81974 9.0027 -82.44865 -4.78403 5.08397 15.64033 5.23836 2.56416 -26.67259 3.7494 -4.98547 -14.1665 7.29282 0.30542 -9.55439 -1.41118 -5.75489 1.97826 4.10886
-1.50005 0.94554 -0.15226 208.39503 0 -1.37007 -58.06927 5.48647 -40.60527 -66.57754 -44.11738 41.56173 148.92504 -19.36782 50.40472 5.7869 81.83405 -2.17761 -3.1136 141.40926 -9.89525 5.39222 9.05354 -82.46203 -4.79289 5.1081 15.6259 5.2307 2.4153 -26.67556 3.74645 -4.97578 -14.15887 7.25421 0.32646 -9.86045 -1.30045 -5.83674 2.00768 4.25155
-1.50016 0.94556 -0.15234 208.58952 0 -1.39697 -58.06927 5.55669 -40.61594 -66.57754 -44.11739 41.39128 149.26151 -20.49332 44.29594 5.78691 81.78133 -2.0875 -3.11385 141.54226 -9.88234 4.92875 9.10699 -82.44861 -4.79738 5.13965 15.62188 5.21319 2.23977 -26.7065 3.75189 -4.96321 -14.14765 7.26345 0.33745 -10.09672 -1.27732 -5.88078 1.96342 4.29594
-1.50028 0.94558 -0.15242 208.76473 0 -1.42526 -58.06927 5.61335 -40.62929 -66.57754 -44.11739 41.22777 149.62381 -21.60327 38.82991 5.78692 81.74682 -2.0633 -3.09242 141.67516 -9.87157 4.49297 9.15802 -82.44547 -4.80429 5.16755 15.61228 5.20173 2.08008 -26.72253 3.75244 -4.95192 -14.13856 7.25077 0.35412 -10.34579 -1.2152 -5.9408 1.95457 4.36906
-1.50039 0.9456 -0.1525 208.95757 0 -1.45121 -58.06927 5.68651 -40.64125 -66.57754 -44.11739 41.06329 150.00514 -22.7848 33.27576 5.78693 81.69877 -2.02934 -3.05885 141.82366 -9.8745 4.00941 9.21459 -82.45074 -4.80925 5.19657 15.60625 5.18346 1.90329 -26.74841 3.75764 -4.94085 -14.12757 7.23478 0.36673 -10.68533 -1.14136 -6.01016 1.94194 4.5168
-1.5005 0.94563 -0.15258 209.12052 0 -1.48161 -58.06927 5.72982 -40.65567 -66.57754 -44.11739 40.89419 150.32755 -23.81056 27.6136 5.78693 81.66882 -1.98409 -3.06098 141.93709 -9.84311 3.61404 9.26015 -82.43237 -4.81761 5.22509 15.59505 5.17724 1.75651 -26.75959 3.75483 -4.92848 -14.11948 7.23815 0.38531 -10.81939 -1.11506 -6.05 1.91825 4.48724
-1.50063 0.94573 -0.15263 209.19843 0 -1.52365 -58.06927 5.69047 -40.66994 -66.57754 -44.11739 40.74911 150.53697 -24.44944 21.68621 5.78694 81.70682 -1.92231 -3.17635 141.9601 -9.74968 3.50398 9.27424 -82.35056 -4.83231 5.24988 15.56989 5.20469 1.69663 -26.73083 3.73158 -4.91464 -14.122 7.2891 0.42082 -10.35687 -1.20975 -6.01039 1.87903 3.93737
-1.50077 0.94584 -0.15267 209.24375 0 -1.57034 -58.06927 5.61955 -40.68857 -66.57754 -44.11739 40.59354 150.68316 -24.9218 15.75794 5.78694 81.76163 -1.85685 -3.32109 141.94709 -9.61627 3.47755 9.27724 -82.24665 -4.8513 5.27404 15.53872 5.24494 1.66847 -26.68503 3.69938 -4.89935 -14.12724 7.35766 0.46291 -9.69538 -1.3489 -5.94277 1.83099 3.21976
-1.5009 0.94595 -0.15271 209.29981 0 -1.61556 -58.06927 5.55958 -40.71026 -66.57754 -44.11739 40.42159 150.83622 -25.44231 10.02809 5.78694 81.80092 -1.80655 -3.4339 141.9474 -9.48202 3.39243 9.28549 -82.15586 -4.87101 5.29876 15.50837 5.28068 1.62763 -26.64195 3.66886 -4.88374 -14.13011 7.41472 0.50325 -9.15459 -1.46118 -5.89234 1.78851 2.61464
-1.50105 0.94605 -0.15275 209.37414 0 -1.65813 -58.06927 5.51407 -40.70958 -66.57754 -44.11738 40.33979 151.07917 -26.08292 3.40395 5.78695 81.87177 -1.69697 -3.62582 141.96032 -9.42902 3.39593 9.29276 -82.05118 -4.87936 5.32237 15.48622 5.31069 1.57865 -26.62053 3.64858 -4.872 -14.13766 7.4873 0.53817 -8.48836 -1.6028 -5.82294 1.73758 1.85812
-1.50116 0.94618 -0.15281 209.4024 0 -1.70721 -58.06927 5.43146 -40.75773 -66.57754 -44.11739 40.06616 151.12091 -26.42907 -1.32726 5.78695 81.8822 -1.70863 -3.66074 141.93853 -9.19567 3.23194 9.29965 -81.97049 -4.91236 5.34833 15.44574 5.35564 1.55435 -26.55025 3.6049 -4.85208 -14.13613 7.5322 0.58587 -8.03133 -1.6949 -5.78551 1.70236 1.37219
-1.5012 0.94642 -0.15296 209.30968 0 -1.77412 -58.06927 5.24711 -40.93203 -66.57757 -44.11745 39.27703 150.6207 -26.03861 -0.93744 5.78695 81.71351 -2.08373 -3.24213 141.83052 -8.48507 2.61073 9.30658 -81.96218 -5.01391 5.37854 15.35356 5.44021 1.59191 -26.34351 3.49743 -4.80833 -14.10908 7.48688 0.669 -8.25034 -1.62025 -5.85526 1.71946 1.72852
-1.50121 0.94669 -0.15314 209.17191 0 -1.84724 -58.06927 5.02778 -41.15806 -66.5776 -44.11753 38.29082 149.92067 -25.34793 1.37804 5.78696 81.48517 -2.57638 -2.66689 141.68938 -7.58951 1.81191 9.31422 -81.97899 -5.14044 5.41153 15.2436 5.53913 1.65308 -26.08916 3.36696 -4.7567 -14.0728 7.41445 0.76448 -8.67856 -1.497 -5.95627 1.75198 2.35411
-1.50123 0.94694 -0.1533 209.05571 0 -1.91688 -58.06927 4.82884 -41.36383 -66.57763 -44.1176 37.39018 149.31383 -24.77496 2.89641 5.78694 81.28955 -2.99785 -2.17112 141.56203 -6.77508 1.07968 9.32207 -81.9837 -5.25375 5.44483 15.1434 5.6306 1.7026 -25.86014 3.24785 -4.70973 -14.04059 7.36071 0.85325 -8.97777 -1.40865 -6.03499 1.77306 2.82043
-1.50124 0.94721 -0.15347 208.93365 0 -1.98947 -58.06927 4.6095 -41.55078 -66.57767 -44.11768 36.51544 148.69534 -24.28728 4.10989 5.78697 81.07053 -3.49454 -1.64028 141.43592 -5.98325 0.41637 9.32559 -81.98963 -5.37259 5.4716 15.03583 5.72654 1.75706 -25.61475 3.12451 -4.65814 -14.00892 7.28157 0.94696 -9.41013 -1.26946 -6.14606 1.8116 3.43336
-1.50127 0.94746 -0.15363 208.81367 0 -2.0573 -58.06927 4.42521 -41.79574 -66.57768 -44.11771 35.52831 148.05368 -23.53777 6.38402 5.78697 80.88624 -3.86198 -1.14634 141.30341 -5.08636 -0.44176 9.34058 -82.00038 -5.48895 5.5125 14.93958 5.81628 1.80646 -25.39261 3.00475 -4.61432 -13.97403 7.24762 1.03312 -9.62139 -1.22196 -6.19851 1.81868 3.81115
-1.50133 0.94769 -0.15379 208.70895 0 -2.11084 -58.06927 4.34229 -42.13056 -66.57772 -44.1178 34.38414 147.40527 -22.27233 11.40033 5.78684 80.80898 -3.84916 -0.78002 141.13017 -4.07315 -1.72282 9.3689 -82.00932 -5.56506 5.59278 14.87796 5.88651 1.83589 -25.24421 2.89948 -4.59403 -13.93117 7.35399 1.09621 -9.13724 -1.45741 -6.07308 1.72557 3.43932
-1.50141 0.9479 -0.15393 208.60809 0 -2.15927 -58.06927 4.29661 -42.53178 -66.57765 -44.11764 33.11722 146.73998 -20.73271 17.37001 5.78714 80.76907 -3.70152 -0.45844 140.95709 -2.93934 -3.20504 9.41221 -82.02418 -5.64275 5.68693 14.82857 5.94976 1.85946 -25.12124 2.79881 -4.5818 -13.88559 7.50511 1.15108 -8.43022 -1.78348 -5.88916 1.60201 2.82866
-1.50148 0.94812 -0.15408 208.50696 0 -2.2098 -58.06927 4.23683 -42.94157 -66.57766 -44.11767 31.83368 146.07627 -19.22794 22.71001 5.78672 80.71457 -3.61176 -0.1245 140.80522 -1.77344 -4.64571 9.46063 -82.04219 -5.73779 5.77409 14.77429 6.01541 1.88551 -24.9882 2.69679 -4.56585 -13.84218 7.6297 1.2092 -7.84893 -2.05585 -5.73778 1.49885 2.35099
-1.50156 0.94834 -0.15426 208.399 0 -2.26156 -58.06927 4.16447 -43.19339 -66.57782 -44.11806 30.83614 145.42806 -18.07892 28.92444 5.78667 80.64895 -3.53927 0.2485 140.56453 -0.95749 -5.89242 9.45871 -82.03587 -5.75803 5.86445 14.7166 6.08479 1.91251 -24.84757 2.59097 -4.54998 -13.79471 7.77915 1.26993 -7.17343 -2.37849 -5.5628 1.36897 1.78008
-1.50161 0.94855 -0.15435 208.30547 0 -2.30938 -58.06927 4.12686 -43.78454 -66.57729 -44.11675 29.2324 144.7502 -16.14353 33.54644 5.78827 80.61488 -3.39872 0.52752 140.50657 0.60046 -7.5755 9.56524 -82.08199 -5.93334 5.95117 14.66909 6.14458 1.93664 -24.72899 2.49426 -4.53584 -13.75492 7.88825 1.32297 -6.63624 -2.61971 -5.42209 1.28673 1.34227
-1.50154 0.9487 -0.15422 208.26203 0 -2.34817 -58.06927 4.18202 -45.34253 -66.57809 -44.11873 25.84637 143.95925 -11.97103 33.28939 5.784 80.67521 -3.08456 0.55673 140.97736 4.2957 -10.52645 9.96851 -82.2663 -6.54496 6.02585 14.6474 6.17934 1.94745 -24.66869 2.42327 -4.52536 -13.73896 7.87106 1.35778 -6.55477 -2.60433 -5.39527 1.34859 1.33763
-1.50143 0.94883 -0.154 208.23096 0 -2.38306 -58.06927 4.26937 -47.23427 -66.57769 -44.11774 21.88054 143.14539 -7.04408 31.43205 5.78984 80.76696 -2.70566 0.49218 141.62799 8.71454 -13.88799 10.48102 -82.50459 -7.3122 6.09579 14.63549 6.20472 1.95689 -24.62919 2.36103 -4.5162 -13.73047 7.81261 1.38492 -6.61575 -2.50598 -5.40385 1.45849 1.47286
-1.50133 0.94897 -0.15381 208.1873 0 -2.41923 -58.06927 4.33897 -48.93844 -66.57563 -44.11262 18.27295 142.36784 -2.54961 30.46255 5.78955 80.82913 -2.37281 0.47076 142.18022 12.71878 -16.98691 10.94195 -82.72068 -8.0008 6.16735 14.61879 6.23445 1.97112 -24.57811 2.29385 -4.5059 -13.71733 7.77574 1.41483 -6.59757 -2.45206 -5.39287 1.54288 1.53748
-1.50127 0.94911 -0.15366 208.17382 0 -2.45713 -58.06927 4.42532 -50.78256 -66.58249 -44.1297 14.26429 141.48544 2.33782 28.85583 5.76894 80.94187 -1.98065 0.44631 142.80166 17.07302 -20.41319 11.40841 -82.9248 -8.71745 6.24292 14.60405 6.2634 1.96691 -24.53718 2.23112 -4.49821 -13.70947 7.72837 1.44738 -6.63179 -2.37258 -5.39466 1.6414 1.62211
-1.50112 0.94925 -0.15341 208.09957 0 -2.49079 -58.06927 4.48107 -52.43105 -66.57095 -44.10098 10.95076 140.80972 6.57623 28.17587 5.82666 80.97546 -1.67893 0.40572 143.32313 20.88905 -23.25341 11.89306 -83.16956 -9.41946 6.30722 14.5873 6.29208 2.00167 -24.47932 2.16084 -4.48524 -13.69233 7.69264 1.47283 -6.59464 -2.32584 -5.37884 1.72271 1.70333
